<svg width="20" height="21" viewBox="0 0 20 21" fill="none" xmlns="http://www.w3.org/2000/svg">
<path d="M2.55317 6.75817C3.24651 5.37754 4.31015 4.21693 5.6252 3.40606C6.94025 2.59519 8.45489 2.16602 9.99984 2.1665C12.2457 2.1665 14.1323 2.9915 15.5748 4.33734L13.1857 6.72734C12.3215 5.9015 11.2232 5.48067 9.99984 5.48067C7.829 5.48067 5.99151 6.94734 5.33734 8.9165C5.17067 9.4165 5.07567 9.94984 5.07567 10.4998C5.07567 11.0498 5.17067 11.5832 5.33734 12.0832C5.99234 14.0532 7.829 15.519 9.99984 15.519C11.1207 15.519 12.0748 15.2232 12.8215 14.7232C13.2544 14.4382 13.6249 14.0684 13.9108 13.6361C14.1967 13.2038 14.392 12.7181 14.4848 12.2082H9.99984V8.98484H17.8482C17.9465 9.52984 17.9998 10.0982 17.9998 10.689C17.9998 13.2273 17.0915 15.364 15.5148 16.814C14.1365 18.0873 12.2498 18.8332 9.99984 18.8332C8.90537 18.8336 7.82154 18.6184 6.81029 18.1997C5.79905 17.7811 4.88021 17.1673 4.1063 16.3934C3.3324 15.6195 2.71858 14.7006 2.29995 13.6894C1.88132 12.6781 1.66607 11.5943 1.6665 10.4998C1.6665 9.15484 1.98817 7.88317 2.55317 6.75817Z" fill="currentColor"/>
</svg>
