<svg width="16" height="16" viewBox="0 0 16 16" fill="none" xmlns="http://www.w3.org/2000/svg">
<path opacity="0.4" d="M14.6667 7.99984C14.6667 9.83984 13.1733 11.3332 11.3333 11.3332C11.3333 9.49317 9.84 7.99984 8 7.99984C9.84 7.99984 11.3333 6.5065 11.3333 4.6665C13.1733 4.6665 14.6667 6.15984 14.6667 7.99984Z" fill="#F5F6F7"/>
<path d="M11.3333 11.3333C9.49333 11.3333 8 9.84 8 8C9.84 8 11.3333 9.49333 11.3333 11.3333Z" fill="#F5F6F7"/>
<path opacity="0.4" d="M11.3332 11.3333C11.3332 13.1733 9.83984 14.6667 7.99984 14.6667C6.15984 14.6667 4.6665 13.1733 4.6665 11.3333C6.5065 11.3333 7.99984 9.84 7.99984 8C7.99984 9.84 9.49317 11.3333 11.3332 11.3333Z" fill="#F5F6F7"/>
<path d="M11.3333 4.6665C11.3333 6.5065 9.84 7.99984 8 7.99984C8 6.15984 9.49333 4.6665 11.3333 4.6665Z" fill="#F5F6F7"/>
<path opacity="0.4" d="M11.3332 4.66683C9.49317 4.66683 7.99984 6.16016 7.99984 8.00016C7.99984 6.16016 6.5065 4.66683 4.6665 4.66683C4.6665 2.82683 6.15984 1.3335 7.99984 1.3335C9.83984 1.3335 11.3332 2.82683 11.3332 4.66683Z" fill="#F5F6F7"/>
<path d="M7.99984 8C7.99984 9.84 6.5065 11.3333 4.6665 11.3333C4.6665 9.49333 6.15984 8 7.99984 8Z" fill="#F5F6F7"/>
<path d="M7.99984 7.99984C6.15984 7.99984 4.6665 6.5065 4.6665 4.6665C6.5065 4.6665 7.99984 6.15984 7.99984 7.99984Z" fill="#F5F6F7"/>
<path opacity="0.4" d="M8.00016 7.99984C6.16016 7.99984 4.66683 9.49317 4.66683 11.3332C2.82683 11.3332 1.3335 9.83984 1.3335 7.99984C1.3335 6.15984 2.82683 4.6665 4.66683 4.6665C4.66683 6.5065 6.16016 7.99984 8.00016 7.99984Z" fill="#F5F6F7"/>
</svg>
