<svg width="20" height="20" viewBox="0 0 20 20" fill="none" xmlns="http://www.w3.org/2000/svg">
<path opacity="0.4" d="M15.8332 7.50008C15.8332 8.70841 15.4748 9.81676 14.8582 10.7418C13.9582 12.0751 12.5332 13.0168 10.8748 13.2584C10.5915 13.3084 10.2998 13.3334 9.99984 13.3334C9.69984 13.3334 9.40817 13.3084 9.12484 13.2584C7.4665 13.0168 6.0415 12.0751 5.1415 10.7418C4.52484 9.81676 4.1665 8.70841 4.1665 7.50008C4.1665 4.27508 6.77484 1.66675 9.99984 1.66675C13.2248 1.66675 15.8332 4.27508 15.8332 7.50008Z" fill="#F4BF00"/>
<path d="M17.7082 15.3917L16.3332 15.7167C16.0249 15.7917 15.7832 16.025 15.7166 16.3333L15.4249 17.5583C15.2666 18.225 14.4166 18.425 13.9749 17.9L9.9999 13.3333L6.0249 17.9083C5.58324 18.4333 4.73324 18.2333 4.5749 17.5667L4.28324 16.3417C4.20824 16.0333 3.96657 15.7917 3.66657 15.725L2.29157 15.4C1.65824 15.25 1.43324 14.4583 1.89157 14L5.14157 10.75C6.04157 12.0833 7.46657 13.025 9.1249 13.2667C9.40824 13.3167 9.6999 13.3417 9.9999 13.3417C10.2999 13.3417 10.5916 13.3167 10.8749 13.2667C12.5332 13.025 13.9582 12.0833 14.8582 10.75L18.1082 14C18.5666 14.45 18.3416 15.2417 17.7082 15.3917Z" fill="#E0AB00"/>
<path d="M10.4831 4.98325L10.9748 5.96658C11.0415 6.09991 11.2165 6.23325 11.3748 6.25825L12.2665 6.40824C12.8331 6.49991 12.9665 6.91658 12.5581 7.32492L11.8665 8.01657C11.7498 8.13324 11.6831 8.35825 11.7248 8.52492L11.9248 9.38325C12.0831 10.0583 11.7248 10.3249 11.1248 9.96657L10.2915 9.47491C10.1415 9.38324 9.89148 9.38324 9.74148 9.47491L8.90815 9.96657C8.30815 10.3166 7.94981 10.0583 8.10815 9.38325L8.30815 8.52492C8.34148 8.36659 8.28315 8.13324 8.16648 8.01657L7.47481 7.32492C7.06648 6.91658 7.19981 6.50824 7.76648 6.40824L8.65815 6.25825C8.80815 6.23325 8.98315 6.09991 9.04981 5.96658L9.54148 4.98325C9.78315 4.44992 10.2165 4.44992 10.4831 4.98325Z" fill="#E0AB00"/>
</svg>
