<svg width="9" height="9" viewBox="0 0 9 9" fill="none" xmlns="http://www.w3.org/2000/svg">
<path d="M8.33105 6.02637L8.32422 0.694336C8.32422 0.521159 8.26953 0.379883 8.16016 0.270508C8.05534 0.156576 7.91178 0.0996094 7.72949 0.0996094H2.39746C2.22428 0.0996094 2.08529 0.156576 1.98047 0.270508C1.87565 0.379883 1.82324 0.509766 1.82324 0.660156C1.82324 0.80599 1.87793 0.933594 1.9873 1.04297C2.10124 1.15234 2.23112 1.20703 2.37695 1.20703H3.95605L6.66309 1.11133L5.63086 1.99316L0.538086 7.09961C0.424154 7.20898 0.367188 7.33659 0.367188 7.48242C0.367188 7.63281 0.424154 7.76725 0.538086 7.88574C0.656576 8.00423 0.791016 8.06348 0.941406 8.06348C1.0918 8.06348 1.22168 8.00879 1.33105 7.89941L6.43066 2.79297L7.32617 1.76074L7.20996 4.44727V6.05371C7.20996 6.19954 7.26465 6.32943 7.37402 6.44336C7.48796 6.55729 7.62012 6.61426 7.77051 6.61426C7.91634 6.61426 8.04622 6.55957 8.16016 6.4502C8.27409 6.33626 8.33105 6.19499 8.33105 6.02637Z" fill="currentColor"/>
</svg>
